<svg width="16" height="16" viewBox="0 0 16 16" fill="none"
    xmlns="http://www.w3.org/2000/svg">
    <path
        d="M2 6.66667H3.33333M2 9.33333H3.33333M6.66667 2V3.33333M9.33333 2V3.33333M14 6.66667H12.6667M14 9.33333H12.6667M9.33333 14V12.6667M6.66667 14V12.6667M3.33333 4C3.33333 3.82319 3.40357 3.65362 3.5286 3.5286C3.65362 3.40357 3.82319 3.33333 4 3.33333H12C12.1768 3.33333 12.3464 3.40357 12.4714 3.5286C12.5964 3.65362 12.6667 3.82319 12.6667 4V12C12.6667 12.1768 12.5964 12.3464 12.4714 12.4714C12.3464 12.5964 12.1768 12.6667 12 12.6667H4C3.82319 12.6667 3.65362 12.5964 3.5286 12.4714C3.40357 12.3464 3.33333 12.1768 3.33333 12V4ZM6 6H10V10H6V6Z"
        stroke="currentColor" stroke-width="1.25" stroke-linecap="round" stroke-linejoin="round" />
</svg>