<svg width="16" height="16" viewBox="0 0 16 16" fill="none"
    xmlns="http://www.w3.org/2000/svg">
    <path
        d="M5.33334 3.33333C5.33334 3.51015 5.40358 3.67971 5.52861 3.80474C5.65363 3.92976 5.8232 4 6.00001 4C6.17682 4 6.34639 3.92976 6.47141 3.80474C6.59644 3.67971 6.66668 3.51015 6.66668 3.33333C6.66668 3.15652 6.59644 2.98695 6.47141 2.86193C6.34639 2.73691 6.17682 2.66667 6.00001 2.66667C5.8232 2.66667 5.65363 2.73691 5.52861 2.86193C5.40358 2.98695 5.33334 3.15652 5.33334 3.33333Z"
        fill="#131313" />
    <path
        d="M5.33334 8C5.33334 8.17681 5.40358 8.34638 5.52861 8.47141C5.65363 8.59643 5.8232 8.66667 6.00001 8.66667C6.17682 8.66667 6.34639 8.59643 6.47141 8.47141C6.59644 8.34638 6.66668 8.17681 6.66668 8C6.66668 7.82319 6.59644 7.65362 6.47141 7.5286C6.34639 7.40357 6.17682 7.33333 6.00001 7.33333C5.8232 7.33333 5.65363 7.40357 5.52861 7.5286C5.40358 7.65362 5.33334 7.82319 5.33334 8Z"
        fill="#131313" />
    <path
        d="M5.33334 12.6667C5.33334 12.8435 5.40358 13.013 5.52861 13.1381C5.65363 13.2631 5.8232 13.3333 6.00001 13.3333C6.17682 13.3333 6.34639 13.2631 6.47141 13.1381C6.59644 13.013 6.66668 12.8435 6.66668 12.6667C6.66668 12.4899 6.59644 12.3203 6.47141 12.1953C6.34639 12.0702 6.17682 12 6.00001 12C5.8232 12 5.65363 12.0702 5.52861 12.1953C5.40358 12.3203 5.33334 12.4899 5.33334 12.6667Z"
        fill="#131313" />
    <path
        d="M9.33334 3.33333C9.33334 3.51015 9.40358 3.67971 9.52861 3.80474C9.65363 3.92976 9.8232 4 10 4C10.1768 4 10.3464 3.92976 10.4714 3.80474C10.5964 3.67971 10.6667 3.51015 10.6667 3.33333C10.6667 3.15652 10.5964 2.98695 10.4714 2.86193C10.3464 2.73691 10.1768 2.66667 10 2.66667C9.8232 2.66667 9.65363 2.73691 9.52861 2.86193C9.40358 2.98695 9.33334 3.15652 9.33334 3.33333Z"
        fill="#131313" />
    <path
        d="M9.33334 8C9.33334 8.17681 9.40358 8.34638 9.52861 8.47141C9.65363 8.59643 9.8232 8.66667 10 8.66667C10.1768 8.66667 10.3464 8.59643 10.4714 8.47141C10.5964 8.34638 10.6667 8.17681 10.6667 8C10.6667 7.82319 10.5964 7.65362 10.4714 7.5286C10.3464 7.40357 10.1768 7.33333 10 7.33333C9.8232 7.33333 9.65363 7.40357 9.52861 7.5286C9.40358 7.65362 9.33334 7.82319 9.33334 8Z"
        fill="#131313" />
    <path
        d="M9.33334 12.6667C9.33334 12.8435 9.40358 13.013 9.52861 13.1381C9.65363 13.2631 9.8232 13.3333 10 13.3333C10.1768 13.3333 10.3464 13.2631 10.4714 13.1381C10.5964 13.013 10.6667 12.8435 10.6667 12.6667C10.6667 12.4899 10.5964 12.3203 10.4714 12.1953C10.3464 12.0702 10.1768 12 10 12C9.8232 12 9.65363 12.0702 9.52861 12.1953C9.40358 12.3203 9.33334 12.4899 9.33334 12.6667Z"
        fill="#131313" />
    <path
        d="M5.33334 3.33333C5.33334 3.51015 5.40358 3.67971 5.52861 3.80474C5.65363 3.92976 5.8232 4 6.00001 4C6.17682 4 6.34639 3.92976 6.47141 3.80474C6.59644 3.67971 6.66668 3.51015 6.66668 3.33333C6.66668 3.15652 6.59644 2.98695 6.47141 2.86193C6.34639 2.73691 6.17682 2.66667 6.00001 2.66667C5.8232 2.66667 5.65363 2.73691 5.52861 2.86193C5.40358 2.98695 5.33334 3.15652 5.33334 3.33333Z"
        stroke="currentColor" stroke-width="1.25" stroke-linecap="round" stroke-linejoin="round" />
    <path
        d="M5.33334 8C5.33334 8.17681 5.40358 8.34638 5.52861 8.47141C5.65363 8.59643 5.8232 8.66667 6.00001 8.66667C6.17682 8.66667 6.34639 8.59643 6.47141 8.47141C6.59644 8.34638 6.66668 8.17681 6.66668 8C6.66668 7.82319 6.59644 7.65362 6.47141 7.5286C6.34639 7.40357 6.17682 7.33333 6.00001 7.33333C5.8232 7.33333 5.65363 7.40357 5.52861 7.5286C5.40358 7.65362 5.33334 7.82319 5.33334 8Z"
        stroke="currentColor" stroke-width="1.25" stroke-linecap="round" stroke-linejoin="round" />
    <path
        d="M5.33334 12.6667C5.33334 12.8435 5.40358 13.013 5.52861 13.1381C5.65363 13.2631 5.8232 13.3333 6.00001 13.3333C6.17682 13.3333 6.34639 13.2631 6.47141 13.1381C6.59644 13.013 6.66668 12.8435 6.66668 12.6667C6.66668 12.4899 6.59644 12.3203 6.47141 12.1953C6.34639 12.0702 6.17682 12 6.00001 12C5.8232 12 5.65363 12.0702 5.52861 12.1953C5.40358 12.3203 5.33334 12.4899 5.33334 12.6667Z"
        stroke="currentColor" stroke-width="1.25" stroke-linecap="round" stroke-linejoin="round" />
    <path
        d="M9.33334 3.33333C9.33334 3.51015 9.40358 3.67971 9.52861 3.80474C9.65363 3.92976 9.8232 4 10 4C10.1768 4 10.3464 3.92976 10.4714 3.80474C10.5964 3.67971 10.6667 3.51015 10.6667 3.33333C10.6667 3.15652 10.5964 2.98695 10.4714 2.86193C10.3464 2.73691 10.1768 2.66667 10 2.66667C9.8232 2.66667 9.65363 2.73691 9.52861 2.86193C9.40358 2.98695 9.33334 3.15652 9.33334 3.33333Z"
        stroke="currentColor" stroke-width="1.25" stroke-linecap="round" stroke-linejoin="round" />
    <path
        d="M9.33334 8C9.33334 8.17681 9.40358 8.34638 9.52861 8.47141C9.65363 8.59643 9.8232 8.66667 10 8.66667C10.1768 8.66667 10.3464 8.59643 10.4714 8.47141C10.5964 8.34638 10.6667 8.17681 10.6667 8C10.6667 7.82319 10.5964 7.65362 10.4714 7.5286C10.3464 7.40357 10.1768 7.33333 10 7.33333C9.8232 7.33333 9.65363 7.40357 9.52861 7.5286C9.40358 7.65362 9.33334 7.82319 9.33334 8Z"
        stroke="currentColor" stroke-width="1.25" stroke-linecap="round" stroke-linejoin="round" />
    <path
        d="M9.33334 12.6667C9.33334 12.8435 9.40358 13.013 9.52861 13.1381C9.65363 13.2631 9.8232 13.3333 10 13.3333C10.1768 13.3333 10.3464 13.2631 10.4714 13.1381C10.5964 13.013 10.6667 12.8435 10.6667 12.6667C10.6667 12.4899 10.5964 12.3203 10.4714 12.1953C10.3464 12.0702 10.1768 12 10 12C9.8232 12 9.65363 12.0702 9.52861 12.1953C9.40358 12.3203 9.33334 12.4899 9.33334 12.6667Z"
        stroke="currentColor" stroke-width="1.25" stroke-linecap="round" stroke-linejoin="round" />
</svg>