<svg width="16" height="16" viewBox="0 0 16 16" fill="none"
    xmlns="http://www.w3.org/2000/svg">
    <path
        d="M6 14V10C6 9.64638 6.14048 9.30724 6.39052 9.05719C6.64057 8.80714 6.97971 8.66667 7.33333 8.66667H8.66667C9.02029 8.66667 9.35943 8.80714 9.60948 9.05719C9.85952 9.30724 10 9.64638 10 10V14M3.33333 8H2L8 2L14 8H12.6667V12.6667C12.6667 13.0203 12.5262 13.3594 12.2761 13.6095C12.0261 13.8595 11.687 14 11.3333 14H4.66667C4.31304 14 3.97391 13.8595 3.72386 13.6095C3.47381 13.3594 3.33333 13.0203 3.33333 12.6667V8Z"
        stroke="currentColor" stroke-width="1.25" stroke-linecap="round" stroke-linejoin="round" />
</svg>