<svg width="16" height="16" viewBox="0 0 16 16" fill="none"
    xmlns="http://www.w3.org/2000/svg">
    <path
        d="M2.66666 13.3333L4.99999 11M9.99999 2.66666L7.66666 4.99999M13.3333 5.99999L11 8.33332M6.5233 3.99999L12 9.47666L10.6306 10.846C10.2737 11.2173 9.84621 11.5136 9.37332 11.7177C8.90043 11.9218 8.39159 12.0295 7.87656 12.0345C7.36154 12.0396 6.85068 11.9419 6.37388 11.7471C5.89708 11.5523 5.46391 11.2644 5.09971 10.9002C4.73552 10.536 4.44762 10.1029 4.25285 9.62607C4.05809 9.14927 3.96038 8.63841 3.96543 8.12339C3.97048 7.60837 4.0782 7.09952 4.28227 6.62663C4.48635 6.15374 4.7827 5.7263 5.15396 5.36932L6.5233 3.99999Z"
        stroke="currentColor" stroke-width="1.25" stroke-linecap="round" stroke-linejoin="round" />
</svg>